<?xml version="1.0" encoding="UTF-8"?>
<!DOCTYPE svg PUBLIC "-//W3C//DTD SVG 1.1//EN" "http://www.w3.org/Graphics/SVG/1.1/DTD/svg11.dtd">
<svg xmlns="http://www.w3.org/2000/svg" version="1.1" width="334px" height="334px" style="shape-rendering:geometricPrecision; text-rendering:geometricPrecision; image-rendering:optimizeQuality; fill-rule:evenodd; clip-rule:evenodd" xmlns:xlink="http://www.w3.org/1999/xlink">
<g><path style="opacity:0.973" fill="#000000" d="M 12.5,11.5 C 101.501,11.3333 190.501,11.5 279.5,12C 293,25.5 306.5,39 320,52.5C 320.5,141.499 320.667,230.499 320.5,319.5C 230.833,319.667 141.166,319.5 51.5,319C 38.6667,306.167 25.8333,293.333 13,280.5C 12.5,190.834 12.3333,101.167 12.5,11.5 Z M 34.5,33.5 C 108.833,33.5 183.167,33.5 257.5,33.5C 257.5,108.167 257.5,182.833 257.5,257.5C 183.167,257.5 108.833,257.5 34.5,257.5C 34.5,182.833 34.5,108.167 34.5,33.5 Z"/></g>
<g><path style="opacity:0.968" fill="#000000" d="M 109.5,58.5 C 128.167,58.5 146.833,58.5 165.5,58.5C 165.5,69.5 165.5,80.5 165.5,91.5C 172.833,91.5 180.167,91.5 187.5,91.5C 187.5,107.167 187.5,122.833 187.5,138.5C 180.167,138.5 172.833,138.5 165.5,138.5C 165.071,152.559 165.571,166.559 167,180.5C 167.903,181.701 169.069,182.535 170.5,183C 176.491,183.499 182.491,183.666 188.5,183.5C 188.5,199.5 188.5,215.5 188.5,231.5C 174.076,232.009 159.743,231.175 145.5,229C 126.717,223.216 115.217,210.716 111,191.5C 109.974,173.847 109.474,156.181 109.5,138.5C 103.833,138.5 98.1667,138.5 92.5,138.5C 92.5,122.833 92.5,107.167 92.5,91.5C 98.1667,91.5 103.833,91.5 109.5,91.5C 109.5,80.5 109.5,69.5 109.5,58.5 Z"/></g>
</svg>
