<?xml version="1.0" standalone="no"?>
<!DOCTYPE svg PUBLIC "-//W3C//DTD SVG 20010904//EN"
 "http://www.w3.org/TR/2001/REC-SVG-20010904/DTD/svg10.dtd">
<svg version="1.0" xmlns="http://www.w3.org/2000/svg"
 width="250.000000pt" height="250.000000pt" viewBox="0 0 250.000000 250.000000"
 preserveAspectRatio="xMidYMid meet">

<g transform="translate(0.000000,250.000000) scale(0.100000,-0.100000)"
fill="#000000" stroke="none">
<path d="M100 1407 l0 -992 153 -153 152 -152 993 0 992 0 0 997 0 998 -147
147 -148 148 -997 0 -998 0 0 -993z m1840 3 l0 -850 -845 0 -845 0 0 850 0
850 845 0 845 0 0 -850z"/>
<path d="M830 1925 l0 -125 -65 0 -65 0 0 -165 0 -165 65 0 65 0 0 -157 c0
-196 11 -270 53 -353 65 -129 174 -180 388 -180 l129 0 0 164 0 163 -66 6
c-98 7 -98 8 -102 197 l-3 160 85 0 86 0 0 165 0 165 -85 0 -85 0 0 125 0 125
-200 0 -200 0 0 -125z"/>
</g>
</svg>
